<svg xmlns="http://www.w3.org/2000/svg" viewBox="0 0 64 64" fill="none" role="img" aria-label="달력">
  <rect width="64" height="64" rx="14" fill="#ffffff"/>
  <rect x="10" y="16" width="44" height="38" rx="7" fill="#ffffff" stroke="#e2e8f0" stroke-width="1.5"/>
  <path fill="#8B0029" d="M10 20a7 7 0 0 1 7-7h30a7 7 0 0 1 7 7v8H10v-8z"/>
  <rect x="19" y="11" width="5" height="11" rx="2.5" fill="#94a3b8"/>
  <rect x="40" y="11" width="5" height="11" rx="2.5" fill="#94a3b8"/>
  <g fill="#cbd5e1">
    <circle cx="18" cy="34" r="1.5"/>
    <circle cx="26" cy="34" r="1.5"/>
    <circle cx="34" cy="34" r="1.5"/>
    <circle cx="42" cy="34" r="1.5"/>
    <circle cx="18" cy="42" r="1.5"/>
    <circle cx="26" cy="42" r="1.5"/>
    <circle cx="42" cy="42" r="1.5"/>
    <circle cx="18" cy="50" r="1.5"/>
    <circle cx="26" cy="50" r="1.5"/>
    <circle cx="34" cy="50" r="1.5"/>
    <circle cx="42" cy="50" r="1.5"/>
  </g>
  <circle cx="34" cy="42" r="2.5" fill="#8B0029"/>
</svg>
